<svg width="713" height="715" viewBox="0 0 713 715" fill="none" xmlns="http://www.w3.org/2000/svg">
<path d="M598.653 201.687C587.612 190.646 569.902 187.581 550.893 193.431L337.132 254.805C301.82 264.823 262.974 303.669 252.796 339.141L191.288 553.406C188.495 562.742 187.814 571.885 189.3 580.113C190.785 588.341 194.396 595.428 199.847 600.813C205.298 606.198 212.439 609.733 220.705 611.139C228.971 612.544 238.135 611.782 247.472 608.912L461.199 547.544C496.511 537.526 535.357 498.68 545.535 463.208L607.043 248.943C609.838 239.651 610.535 230.545 609.079 222.344C607.623 214.144 604.054 207.072 598.653 201.687Z" fill="#F5BF39" fill-opacity="0.2"/>
<path d="M512.653 113.687C501.612 102.646 483.902 99.5806 464.893 105.431L251.132 166.805C215.82 176.823 176.974 215.669 166.796 251.141L105.288 465.406C102.495 474.742 101.814 483.885 103.3 492.113C104.785 500.341 108.396 507.428 113.847 512.813C119.298 518.198 126.439 521.733 134.705 523.139C142.971 524.544 152.135 523.782 161.472 520.912L375.199 459.544C410.511 449.526 449.357 410.68 459.535 375.208L521.043 160.943C523.838 151.651 524.535 142.545 523.079 134.344C521.623 126.144 518.054 119.072 512.653 113.687Z" fill="#F5BF39"/>
</svg>
