<svg width="101" height="42" viewBox="0 0 101 42" fill="none" xmlns="http://www.w3.org/2000/svg">
<path d="M35.2968 11.8583C34.6458 11.2091 33.6016 11.0289 32.4808 11.3729L19.8773 14.9814C17.7953 15.5704 15.5049 17.8544 14.9048 19.94L11.2783 32.5378C11.1136 33.0867 11.0735 33.6243 11.1611 34.108C11.2487 34.5918 11.4616 35.0085 11.783 35.3251C12.1043 35.6417 12.5254 35.8496 13.0127 35.9322C13.5001 36.0149 14.0404 35.9701 14.5909 35.8013L27.1924 32.1932C29.2744 31.6041 31.5648 29.3202 32.1649 27.2346L35.7915 14.6367C35.9563 14.0904 35.9973 13.555 35.9115 13.0729C35.8256 12.5907 35.6152 12.1749 35.2968 11.8583Z" fill="#F5BF39" fill-opacity="0.2"/>
<path d="M30.2265 6.68428C29.5755 6.03511 28.5313 5.85489 27.4105 6.19889L14.807 9.80738C12.725 10.3964 10.4346 12.6804 9.83451 14.766L6.20796 27.3638C6.04329 27.9127 6.00316 28.4503 6.09076 28.934C6.17835 29.4178 6.39126 29.8345 6.71264 30.1511C7.03402 30.4677 7.45505 30.6755 7.94241 30.7582C8.42977 30.8409 8.9701 30.796 9.52063 30.6273L22.1221 27.0192C24.2041 26.4301 26.4945 24.1461 27.0946 22.0606L30.7212 9.46273C30.8859 8.91638 30.927 8.38101 30.8412 7.89885C30.7553 7.41668 30.5449 7.0009 30.2265 6.68428Z" fill="#F5BF39"/>
<path d="M53.96 32.4595C52.7653 32.4595 51.912 32.2248 51.4 31.7555C50.888 31.2861 50.632 30.6141 50.632 29.7395C50.632 29.3128 50.664 28.5875 50.728 27.5635C50.792 26.5181 50.8773 25.3341 50.984 24.0115C51.0907 22.6888 51.1973 21.2915 51.304 19.8195C51.4107 18.3475 51.5173 16.9608 51.624 15.6595C51.7307 14.3581 51.816 13.2168 51.88 12.2355C51.944 11.2541 51.976 10.5821 51.976 10.2195C51.976 9.89947 52.1467 9.73947 52.488 9.73947H54.248C55.4427 9.73947 56.264 9.97414 56.712 10.4435C57.1813 10.8915 57.416 11.5635 57.416 12.4595C57.416 12.5661 57.4053 12.6621 57.384 12.7475C57.384 12.8328 57.384 12.9288 57.384 13.0355L56.328 27.9795H62.088C62.216 27.9795 62.3333 28.0221 62.44 28.1075C62.5467 28.1715 62.6 28.2781 62.6 28.4275L62.472 30.3155C62.4293 30.9555 62.248 31.4781 61.928 31.8835C61.6293 32.2675 61 32.4595 60.04 32.4595H53.96ZM67.9518 32.4595C67.2904 32.4595 66.7464 32.3955 66.3198 32.2675C65.9144 32.1181 65.5838 31.9155 65.3278 31.6595C65.0931 31.4035 64.9224 31.0941 64.8158 30.7315C64.7304 30.3475 64.6878 29.9101 64.6878 29.4195C64.6878 29.0995 64.6984 28.6515 64.7198 28.0755C64.7624 27.4781 64.8264 26.6675 64.9118 25.6435C64.9971 24.5981 65.0931 23.2861 65.1998 21.7075C65.3278 20.1075 65.4771 18.1341 65.6478 15.7875C65.6691 15.3181 65.7224 15.0408 65.8078 14.9555C65.8718 14.8915 66.0424 14.8595 66.3198 14.8595H67.5677C68.2291 14.8595 68.7624 14.9235 69.1678 15.0515C69.5944 15.1795 69.9251 15.3715 70.1598 15.6275C70.4158 15.8835 70.5864 16.1928 70.6718 16.5555C70.7784 16.9181 70.8318 17.3235 70.8318 17.7715C70.8318 18.0915 70.8104 18.5715 70.7678 19.2115C70.7251 19.8515 70.6611 20.7261 70.5758 21.8355C70.5118 22.9235 70.4158 24.2888 70.2878 25.9315C70.1598 27.5528 69.9998 29.5155 69.8078 31.8195C69.7864 32.0755 69.7331 32.2461 69.6478 32.3315C69.5624 32.4168 69.3811 32.4595 69.1038 32.4595H67.9518ZM65.6798 11.0835C65.6798 10.2301 65.9891 9.55814 66.6078 9.06747C67.2264 8.57681 68.0584 8.33147 69.1038 8.33147C70.0211 8.33147 70.6824 8.52347 71.0878 8.90747C71.5144 9.27014 71.7278 9.7608 71.7278 10.3795C71.7278 11.1688 71.4291 11.8301 70.8318 12.3635C70.2558 12.8755 69.4024 13.1315 68.2718 13.1315C66.5438 13.1315 65.6798 12.4488 65.6798 11.0835ZM80.2798 21.3875C80.2371 22.0275 80.1838 22.7208 80.1198 23.4675C80.0558 24.2141 79.9918 24.9715 79.9278 25.7395C79.8638 26.4861 79.7998 27.2221 79.7358 27.9475C79.6931 28.6728 79.6504 29.3128 79.6078 29.8675C79.5651 30.4221 79.5224 30.8808 79.4798 31.2435C79.4584 31.6061 79.4478 31.7981 79.4478 31.8195C79.4264 32.0755 79.3731 32.2461 79.2878 32.3315C79.2024 32.4168 79.0211 32.4595 78.7438 32.4595H77.5918C76.4398 32.4595 75.6291 32.1928 75.1598 31.6595C74.7118 31.1048 74.4878 30.2835 74.4878 29.1955C74.4878 29.0675 74.4984 28.7475 74.5198 28.2355C74.5624 27.7235 74.6051 27.1155 74.6478 26.4115C74.7118 25.6861 74.7758 24.8861 74.8398 24.0115C74.9038 23.1368 74.9678 22.2621 75.0318 21.3875H73.5278C73.2931 21.3875 73.1758 21.2701 73.1758 21.0355C73.1758 20.8648 73.1864 20.6195 73.2078 20.2995C73.2291 19.9581 73.2504 19.6275 73.2718 19.3075C73.2931 19.0515 73.3251 18.7955 73.3678 18.5395C73.4318 18.2621 73.5278 18.0275 73.6558 17.8355C73.8051 17.6221 74.0184 17.4515 74.2958 17.3235C74.5731 17.1741 74.9358 17.0888 75.3838 17.0675L75.5118 15.7875C75.6398 14.4008 75.8958 13.2381 76.2798 12.2995C76.6851 11.3608 77.2078 10.6141 77.8478 10.0595C78.4878 9.48347 79.2451 9.07814 80.1198 8.84347C81.0158 8.58747 82.0078 8.45947 83.0958 8.45947C84.1624 8.45947 85.0691 8.55547 85.8158 8.74747C86.5838 8.93947 87.2024 9.20614 87.6718 9.54747C88.1411 9.8888 88.4824 10.2941 88.6958 10.7635C88.9091 11.2328 89.0158 11.7341 89.0158 12.2675C89.0158 13.3768 88.6638 14.1661 87.9598 14.6355C87.2771 15.1048 86.3491 15.3395 85.1758 15.3395C84.8558 15.3395 84.6318 15.3181 84.5038 15.2755C84.3971 15.2115 84.3438 15.0835 84.3438 14.8915C84.3438 14.1875 84.2798 13.6328 84.1518 13.2275C84.0238 12.8221 83.6718 12.6195 83.0958 12.6195C82.6691 12.6195 82.3064 12.7475 82.0078 13.0035C81.7091 13.2595 81.4638 13.6008 81.2718 14.0275C81.0798 14.4328 80.9304 14.9021 80.8238 15.4355C80.7384 15.9688 80.6638 16.5128 80.5998 17.0675H84.2798C84.6211 17.0675 84.7918 17.2168 84.7918 17.5155L84.6638 19.2435C84.6211 19.8835 84.4398 20.4061 84.1198 20.8115C83.8211 21.1955 83.1918 21.3875 82.2318 21.3875H80.2798ZM94.9733 19.1795C94.9093 19.9901 94.8346 20.7901 94.7493 21.5795C94.6853 22.3688 94.6213 23.1155 94.5573 23.8195C94.4933 24.5235 94.4399 25.1528 94.3973 25.7075C94.3759 26.2621 94.3653 26.6888 94.3653 26.9875C94.3653 27.5421 94.4293 27.9155 94.5573 28.1075C94.6853 28.2781 94.8986 28.3635 95.1973 28.3635C95.4319 28.3635 95.6346 28.3208 95.8053 28.2355C95.9759 28.1501 96.1359 28.0541 96.2853 27.9475C96.4346 27.8408 96.5626 27.7448 96.6693 27.6595C96.7973 27.5741 96.9359 27.5315 97.0853 27.5315C97.2346 27.5315 97.3733 27.6168 97.5013 27.7875C97.6293 27.9581 97.6933 28.3528 97.6933 28.9715C97.6933 30.1448 97.3733 31.0728 96.7333 31.7555C96.0933 32.4381 94.9946 32.7795 93.4373 32.7795C91.9013 32.7795 90.7599 32.4275 90.0133 31.7235C89.2879 30.9981 88.9253 29.8995 88.9253 28.4275C88.9253 28.1075 88.9359 27.7341 88.9573 27.3075C88.9999 26.8595 89.0533 26.2835 89.1173 25.5795C89.1813 24.8755 89.2559 24.0115 89.3413 22.9875C89.4479 21.9635 89.5546 20.6941 89.6613 19.1795H87.9653C87.7946 19.1795 87.6879 19.1475 87.6453 19.0835C87.6239 18.9981 87.6133 18.8808 87.6133 18.7315L87.7093 17.0995C87.7306 16.8221 87.7626 16.5555 87.8053 16.2995C87.8693 16.0221 87.9759 15.7768 88.1253 15.5635C88.2959 15.3501 88.5306 15.1795 88.8293 15.0515C89.1279 14.9235 89.5226 14.8595 90.0133 14.8595C90.1626 14.4755 90.3333 14.0168 90.5253 13.4835C90.7173 12.9501 90.9093 12.4381 91.1013 11.9475C91.2933 11.4355 91.4746 11.0088 91.6453 10.6675C91.8373 10.3261 92.0079 10.1555 92.1573 10.1555H93.0853C93.9813 10.1555 94.5999 10.4328 94.9413 10.9875C95.2826 11.5421 95.4533 12.2035 95.4533 12.9715C95.4533 13.3981 95.4213 14.0275 95.3573 14.8595H98.7173C99.0586 14.8595 99.2293 15.0088 99.2293 15.3075L99.1013 17.0355C99.0586 17.6755 98.8773 18.1981 98.5573 18.6035C98.2586 18.9875 97.6293 19.1795 96.6693 19.1795H94.9733Z" fill="#F5BF39"/>
</svg>
