<svg width="152" height="74" viewBox="0 0 152 74" fill="none" xmlns="http://www.w3.org/2000/svg">
<path d="M14.88 73C11.296 73 8.736 72.296 7.2 70.888C5.664 69.48 4.896 67.464 4.896 64.84C4.896 63.56 4.992 61.384 5.184 58.312C5.376 55.176 5.632 51.624 5.952 47.656C6.272 43.688 6.592 39.496 6.912 35.08C7.232 30.664 7.552 26.504 7.872 22.6C8.192 18.696 8.448 15.272 8.64 12.328C8.832 9.384 8.928 7.368 8.928 6.27999C8.928 5.32 9.44 4.84 10.464 4.84H15.744C19.328 4.84 21.792 5.544 23.136 6.952C24.544 8.296 25.248 10.312 25.248 13C25.248 13.32 25.216 13.608 25.152 13.864C25.152 14.12 25.152 14.408 25.152 14.728L21.984 59.56H39.264C39.648 59.56 40 59.688 40.32 59.944C40.64 60.136 40.8 60.456 40.8 60.904L40.416 66.568C40.288 68.488 39.744 70.056 38.784 71.272C37.888 72.424 36 73 33.12 73H14.88ZM56.8553 73C54.8713 73 53.2393 72.808 51.9593 72.424C50.7433 71.976 49.7513 71.368 48.9833 70.6C48.2793 69.832 47.7673 68.904 47.4473 67.816C47.1913 66.664 47.0633 65.352 47.0633 63.88C47.0633 62.92 47.0953 61.576 47.1593 59.848C47.2873 58.056 47.4793 55.624 47.7353 52.552C47.9913 49.416 48.2793 45.48 48.5993 40.744C48.9833 35.944 49.4313 30.024 49.9433 22.984C50.0073 21.576 50.1673 20.744 50.4233 20.488C50.6153 20.296 51.1273 20.2 51.9593 20.2H55.7032C57.6873 20.2 59.2873 20.392 60.5033 20.776C61.7833 21.16 62.7753 21.736 63.4793 22.504C64.2473 23.272 64.7593 24.2 65.0153 25.288C65.3353 26.376 65.4953 27.592 65.4953 28.936C65.4953 29.896 65.4313 31.336 65.3033 33.256C65.1753 35.176 64.9833 37.8 64.7273 41.128C64.5353 44.392 64.2473 48.488 63.8633 53.416C63.4793 58.28 62.9993 64.168 62.4233 71.08C62.3593 71.848 62.1993 72.36 61.9433 72.616C61.6873 72.872 61.1433 73 60.3113 73H56.8553ZM50.0393 8.872C50.0393 6.312 50.9673 4.296 52.8233 2.824C54.6793 1.352 57.1753 0.615999 60.3113 0.615999C63.0633 0.615999 65.0473 1.192 66.2633 2.34399C67.5433 3.432 68.1833 4.904 68.1833 6.75999C68.1833 9.12799 67.2873 11.112 65.4953 12.712C63.7673 14.248 61.2073 15.016 57.8153 15.016C52.6313 15.016 50.0393 12.968 50.0393 8.872ZM93.8393 39.784C93.7113 41.704 93.5513 43.784 93.3593 46.024C93.1673 48.264 92.9753 50.536 92.7833 52.84C92.5913 55.08 92.3993 57.288 92.2073 59.464C92.0793 61.64 91.9513 63.56 91.8233 65.224C91.6953 66.888 91.5673 68.264 91.4393 69.352C91.3753 70.44 91.3433 71.016 91.3433 71.08C91.2793 71.848 91.1193 72.36 90.8633 72.616C90.6073 72.872 90.0633 73 89.2313 73H85.7753C82.3193 73 79.8873 72.2 78.4793 70.6C77.1353 68.936 76.4633 66.472 76.4633 63.208C76.4633 62.824 76.4953 61.864 76.5593 60.328C76.6873 58.792 76.8153 56.968 76.9433 54.856C77.1353 52.68 77.3273 50.28 77.5193 47.656C77.7113 45.032 77.9033 42.408 78.0953 39.784H73.5833C72.8793 39.784 72.5273 39.432 72.5273 38.728C72.5273 38.216 72.5593 37.48 72.6233 36.52C72.6873 35.496 72.7513 34.504 72.8153 33.544C72.8793 32.776 72.9753 32.008 73.1033 31.24C73.2953 30.408 73.5833 29.704 73.9673 29.128C74.4153 28.488 75.0553 27.976 75.8873 27.592C76.7193 27.144 77.8073 26.888 79.1513 26.824L79.5353 22.984C79.9193 18.824 80.6873 15.336 81.8393 12.52C83.0553 9.704 84.6233 7.464 86.5433 5.8C88.4633 4.07199 90.7353 2.856 93.3593 2.152C96.0473 1.384 99.0233 0.999994 102.287 0.999994C105.487 0.999994 108.207 1.28799 110.447 1.86399C112.751 2.43999 114.607 3.24 116.015 4.264C117.423 5.288 118.447 6.504 119.087 7.912C119.727 9.32 120.047 10.824 120.047 12.424C120.047 15.752 118.991 18.12 116.879 19.528C114.831 20.936 112.047 21.64 108.527 21.64C107.567 21.64 106.895 21.576 106.511 21.448C106.191 21.256 106.031 20.872 106.031 20.296C106.031 18.184 105.839 16.52 105.455 15.304C105.071 14.088 104.015 13.48 102.287 13.48C101.007 13.48 99.9193 13.864 99.0233 14.632C98.1273 15.4 97.3913 16.424 96.8153 17.704C96.2393 18.92 95.7913 20.328 95.4713 21.928C95.2153 23.528 94.9913 25.16 94.7993 26.824H105.839C106.863 26.824 107.375 27.272 107.375 28.168L106.991 33.352C106.863 35.272 106.319 36.84 105.359 38.056C104.463 39.208 102.575 39.784 99.6953 39.784H93.8393ZM137.92 33.16C137.728 35.592 137.504 37.992 137.248 40.36C137.056 42.728 136.864 44.968 136.672 47.08C136.48 49.192 136.32 51.08 136.192 52.744C136.128 54.408 136.096 55.688 136.096 56.584C136.096 58.248 136.288 59.368 136.672 59.944C137.056 60.456 137.696 60.712 138.592 60.712C139.296 60.712 139.904 60.584 140.416 60.328C140.928 60.072 141.408 59.784 141.856 59.464C142.304 59.144 142.688 58.856 143.008 58.6C143.392 58.344 143.808 58.216 144.256 58.216C144.704 58.216 145.12 58.472 145.504 58.984C145.888 59.496 146.08 60.68 146.08 62.536C146.08 66.056 145.12 68.84 143.2 70.888C141.28 72.936 137.984 73.96 133.312 73.96C128.704 73.96 125.28 72.904 123.04 70.792C120.864 68.616 119.776 65.32 119.776 60.904C119.776 59.944 119.808 58.824 119.872 57.544C120 56.2 120.16 54.472 120.352 52.36C120.544 50.248 120.768 47.656 121.024 44.584C121.344 41.512 121.664 37.704 121.984 33.16H116.896C116.384 33.16 116.064 33.064 115.936 32.872C115.872 32.616 115.84 32.264 115.84 31.816L116.128 26.92C116.192 26.088 116.288 25.288 116.416 24.52C116.608 23.688 116.928 22.952 117.376 22.312C117.888 21.672 118.592 21.16 119.488 20.776C120.384 20.392 121.568 20.2 123.04 20.2C123.488 19.048 124 17.672 124.576 16.072C125.152 14.472 125.728 12.936 126.304 11.464C126.88 9.928 127.424 8.648 127.936 7.62399C128.512 6.6 129.024 6.088 129.472 6.088H132.256C134.944 6.088 136.8 6.92 137.824 8.584C138.848 10.248 139.36 12.232 139.36 14.536C139.36 15.816 139.264 17.704 139.072 20.2H149.152C150.176 20.2 150.688 20.648 150.688 21.544L150.304 26.728C150.176 28.648 149.632 30.216 148.672 31.432C147.776 32.584 145.888 33.16 143.008 33.16H137.92Z" fill="#F5BF39"/>
</svg>
